<svg width="197" height="51" viewBox="0 0 197 51" fill="none" xmlns="http://www.w3.org/2000/svg">
  <path d="M121.67 23.8781C121.557 21.4791 122.198 19.1122 123.48 17.1963C124.245 16.3188 125.156 15.622 126.161 15.1464C127.167 14.6708 128.245 14.4258 129.335 14.4258C130.425 14.4258 131.503 14.6708 132.509 15.1464C133.514 15.622 134.425 16.3188 135.19 17.1963C136.469 19.1137 137.106 21.4805 136.99 23.8781V34.1099H126.08V40.0229C125.97 41.5385 126.323 43.0509 127.08 44.3078C127.708 44.9342 128.517 45.2798 129.355 45.2798C130.193 45.2798 131.002 44.9342 131.63 44.3078C132.383 43.0486 132.735 41.538 132.63 40.0229V37.2869H137V40.0229C137.126 42.4358 136.488 44.8204 135.2 46.7499C134.435 47.6274 133.524 48.3242 132.519 48.7998C131.513 49.2754 130.435 49.5204 129.345 49.5204C128.255 49.5204 127.177 49.2754 126.171 48.7998C125.166 48.3242 124.255 47.6274 123.49 46.7499C122.195 44.8235 121.55 42.4385 121.67 40.0229V23.8781ZM126.08 29.8702H132.58V23.8781C132.681 22.3776 132.329 20.8826 131.58 19.6384C130.952 19.012 130.143 18.6664 129.305 18.6664C128.467 18.6664 127.658 19.012 127.03 19.6384C126.277 20.8803 125.924 22.377 126.03 23.8781L126.08 29.8702Z" fill="white"/>
  <path d="M146.13 48.7172H141.72V15.0596H145.53L146.13 16.8685C146.911 15.6547 148.037 14.7807 149.32 14.3926C150.511 14.0303 151.776 14.1462 152.9 14.7204C155.66 16.1224 157.04 19.1373 157.04 23.7651V31.8488H152.63V23.7877C152.733 22.2835 152.38 20.7844 151.63 19.5367C151 18.9095 150.189 18.5635 149.35 18.5635C148.511 18.5635 147.7 18.9095 147.07 19.5367C146.319 20.7584 145.965 22.2367 146.07 23.7199L146.13 48.7172Z" fill="white"/>
  <path d="M176 48.7171H172.18L171.58 46.8064C170.797 48.0116 169.67 48.8743 168.39 49.2485C167.199 49.6239 165.929 49.5036 164.81 48.9093C162.05 47.53 160.67 44.5339 160.67 39.9212V23.7877C160.557 21.2084 161.267 18.669 162.67 16.631C163.211 15.868 163.9 15.2567 164.685 14.8449C165.469 14.4331 166.327 14.2319 167.192 14.2571C168.057 14.2823 168.904 14.5331 169.669 14.99C170.434 15.447 171.095 16.0976 171.6 16.8911V0.350586H176V48.7171ZM171.59 23.7198C171.695 22.2367 171.341 20.7583 170.59 19.5367C169.96 18.9095 169.149 18.5635 168.31 18.5635C167.471 18.5635 166.66 18.9095 166.03 19.5367C165.28 20.7843 164.927 22.2834 165.03 23.7877V40.0229C164.926 41.5343 165.279 43.0408 166.03 44.2965C166.66 44.9237 167.471 45.2697 168.31 45.2697C169.149 45.2697 169.96 44.9237 170.59 44.2965C171.341 43.0748 171.695 41.5965 171.59 40.1134V23.7198Z" fill="white"/>
  <path d="M180.72 23.8781C180.604 21.4805 181.241 19.1137 182.52 17.1963C183.285 16.3188 184.196 15.622 185.201 15.1464C186.207 14.6708 187.285 14.4258 188.375 14.4258C189.465 14.4258 190.543 14.6708 191.549 15.1464C192.554 15.622 193.465 16.3188 194.23 17.1963C195.498 19.1183 196.125 21.4846 196 23.8781V34.1099H185.13V40.0229C185.025 41.538 185.377 43.0486 186.13 44.3078C186.758 44.9342 187.567 45.2798 188.405 45.2798C189.243 45.2798 190.052 44.9342 190.68 44.3078C191.433 43.0486 191.785 41.538 191.68 40.0229V37.2869H196V40.0229C196.146 42.4506 195.518 44.8573 194.23 46.8064C193.465 47.6839 192.554 48.3807 191.549 48.8563C190.543 49.332 189.465 49.5769 188.375 49.5769C187.285 49.5769 186.207 49.332 185.201 48.8563C184.196 48.3807 183.285 47.6839 182.52 46.8064C181.232 44.877 180.594 42.4923 180.72 40.0794V23.8781ZM185.13 29.8702H191.63V23.8781C191.731 22.3776 191.379 20.8826 190.63 19.6384C190.002 19.012 189.193 18.6664 188.355 18.6664C187.517 18.6664 186.708 19.012 186.08 19.6384C185.331 20.8826 184.979 22.3776 185.08 23.8781L185.13 29.8702Z" fill="white"/>
  <path d="M4.37 49.4972H0V1.13068H4.37V49.4972Z" fill="white"/>
  <path d="M23.16 9.49706H18.76V4.46594H23.16V9.49706ZM23.16 49.5425H18.76V15.8397H23.16V49.5425Z" fill="white"/>
  <path d="M27.89 1.13068H32.3V17.6712C32.8054 16.8777 33.4663 16.2271 34.231 15.7701C34.9956 15.3132 35.8434 15.0623 36.708 15.0372C37.5726 15.012 38.4306 15.2132 39.2151 15.625C39.9995 16.0368 40.6891 16.6481 41.23 17.4111C42.6331 19.4446 43.3429 21.9806 43.23 24.5564V40.7352C43.23 45.348 41.85 48.3629 39.09 49.7799C37.9716 50.3773 36.6989 50.4939 35.51 50.1077C34.229 49.7416 33.1009 48.882 32.32 47.677L31.73 49.5424H27.89V1.13068ZM32.3 40.8369C32.1954 42.3201 32.5488 43.7984 33.3 45.0201C33.5933 45.362 33.9497 45.6264 34.3438 45.7945C34.738 45.9626 35.1601 46.0302 35.58 45.9924C35.9998 46.0286 36.4215 45.9603 36.8155 45.7923C37.2094 45.6243 37.5659 45.3607 37.86 45.0201C38.6126 43.7608 38.9651 42.2502 38.86 40.7352V24.5564C38.9615 23.0559 38.6089 21.5609 37.86 20.3167C37.5659 19.9761 37.2094 19.7125 36.8155 19.5445C36.4215 19.3765 35.9998 19.3082 35.58 19.3444C35.1601 19.3067 34.738 19.3742 34.3438 19.5423C33.9497 19.7104 33.5933 19.9748 33.3 20.3167C32.5488 21.5384 32.1954 23.0167 32.3 24.4999V40.8369Z" fill="white"/>
  <path d="M52.34 49.4973H47.94V15.8397H51.75L52.34 17.6373C53.1273 16.4231 54.2553 15.5463 55.54 15.15C56.7309 14.7877 57.9962 14.9036 59.12 15.4779C61.8733 16.8798 63.25 19.8947 63.25 24.5226V32.6176H58.85V24.5565C58.9515 23.0559 58.5989 21.561 57.85 20.3168C57.2216 19.6904 56.4127 19.3448 55.575 19.3448C54.7373 19.3448 53.9284 19.6904 53.3 20.3168C52.5488 21.5385 52.1954 23.0168 52.3 24.5L52.34 49.4973Z" fill="white"/>
  <path d="M74.55 15.15C75.6478 15.0727 76.7466 15.2823 77.7611 15.7627C78.7756 16.2431 79.6786 16.9812 80.4 17.9199C81.69 19.8312 82.3321 22.2015 82.21 24.6017V40.803C82.345 43.2364 81.7027 45.6436 80.4 47.5866C79.6772 48.5232 78.7739 49.26 77.7598 49.7402C76.7456 50.2204 75.6475 50.4312 74.55 50.3565C73.451 50.4313 72.3515 50.2205 71.3357 49.7404C70.3199 49.2602 69.4149 48.5235 68.69 47.5866C67.3909 45.642 66.7522 43.2349 66.89 40.803V24.6243C66.7739 22.2267 67.4115 19.8599 68.69 17.9426C69.4115 16.9995 70.3154 16.2571 71.3316 15.7728C72.3479 15.2885 73.4492 15.0754 74.55 15.15ZM72.27 20.362C71.5211 21.6062 71.1685 23.1012 71.27 24.6017V40.803C71.1649 42.3181 71.5174 43.8287 72.27 45.088C72.9 45.7151 73.7106 46.0611 74.55 46.0611C75.3894 46.0611 76.2 45.7151 76.83 45.088C77.5826 43.8287 77.9351 42.3181 77.83 40.803V24.6243C77.9315 23.1238 77.5789 21.6288 76.83 20.3846C76.2 19.7574 75.3894 19.4114 74.55 19.4114C73.7106 19.4114 72.9 19.7574 72.27 20.3846V20.362Z" fill="white"/>
  <path d="M117.71 29.9155V16.0206L116.25 16.3824C110.82 17.7164 106.83 20.6899 104.41 25.2236C103.837 26.2992 103.359 27.4351 102.98 28.6153C102.635 27.5092 102.193 26.4449 101.66 25.4384C99.22 20.7803 95.08 17.7278 89.36 16.3937L87.91 16.0545V29.9268C87.91 30.82 87.81 34.6866 90.13 35.1501C92.4777 35.6829 94.6829 36.8282 96.5701 38.4946C98.4572 40.161 99.9741 42.3026 101 44.7488L102.35 47.8014L102.88 45.8229L103.39 47.9258L104.78 44.7488C105.794 42.3196 107.293 40.1895 109.158 38.5259C111.023 36.8624 113.204 35.7107 115.53 35.1614C117.89 34.6866 117.77 30.8313 117.71 29.9155ZM101.5 40.4639C98.8824 36.3731 94.9978 33.5474 90.62 32.5498C90.3402 31.7771 90.2337 30.9382 90.31 30.1077V19.4802C94.59 20.8143 97.71 23.2902 99.59 26.8742C102 31.4418 101.91 37.0043 101.5 40.4639ZM115.06 32.5498C110.742 33.5651 106.915 36.3675 104.33 40.4073C103.99 36.8912 103.99 31.2948 106.47 26.6707C108.483 23.0757 111.653 20.5056 115.31 19.5028V30.1416C115.389 30.9368 115.303 31.7418 115.06 32.4932V32.5498Z" fill="white"/>
  <path d="M103.37 47.937L102.87 45.8568L102.34 47.8127L101 44.7601C99.975 42.3271 98.4656 40.1954 96.5902 38.5321C94.7148 36.8688 92.5242 35.7189 90.19 35.1727C89.6752 35.039 89.2084 34.7318 88.8513 34.2917C88.4942 33.8516 88.2636 33.2994 88.19 32.708C87.9938 31.7986 87.9163 30.8616 87.96 29.9268V16.0093L89.41 16.3484C95.14 17.7051 99.28 20.769 101.73 25.3931C102.251 26.3915 102.686 27.444 103.03 28.5362C103.407 27.3571 103.882 26.2213 104.45 25.1444C106.87 20.6221 110.86 17.6373 116.3 16.2919L117.77 15.9301V29.9155C117.842 30.8507 117.784 31.7928 117.6 32.708C117.533 33.3024 117.305 33.8586 116.947 34.3001C116.589 34.7415 116.118 35.0464 115.6 35.1727C113.278 35.726 111.101 36.8794 109.24 38.5428C107.378 40.2061 105.883 42.3341 104.87 44.7601L103.37 47.937ZM102.87 45.6759L103.38 47.7788L104.76 44.647C105.775 42.2155 107.275 40.0831 109.142 38.4176C111.009 36.7521 113.192 35.5988 115.52 35.0483C116.036 34.925 116.505 34.6239 116.863 34.1865C117.221 33.7492 117.451 33.1971 117.52 32.6063C117.699 31.694 117.757 30.7565 117.69 29.825V16.0432L116.26 16.3937C110.83 17.7391 106.84 20.7125 104.42 25.2348C103.852 26.3116 103.376 27.4474 103 28.6266C102.648 27.5202 102.206 26.4529 101.68 25.4384C99.24 20.7916 95.1 17.7391 89.38 16.3937L87.96 16.0545V29.9268C87.9066 30.8574 87.9808 31.7918 88.18 32.6967C88.2547 33.2852 88.486 33.834 88.8433 34.2702C89.2005 34.7065 89.6668 35.0094 90.18 35.1388C92.5166 35.6854 94.7096 36.8366 96.5868 38.5019C98.464 40.1672 99.9746 42.3015 101 44.7375L102.33 47.7562L102.87 45.6759ZM101.51 40.4186C99.7971 37.718 97.5193 35.5389 94.88 34.076C93.5445 33.3143 92.1204 32.77 90.65 32.4593C90.3672 31.6835 90.2573 30.841 90.33 30.0059V19.401C94.62 20.7351 97.75 23.2224 99.63 26.8064C100.751 29.039 101.433 31.5185 101.63 34.076C101.818 36.203 101.778 38.3479 101.51 40.4639V40.4186ZM90.63 32.3915C92.0999 32.7042 93.5238 33.2484 94.86 34.0082C97.4943 35.4694 99.771 37.6396 101.49 40.3282C101.745 38.226 101.782 36.0974 101.6 33.9856C101.4 31.4323 100.718 28.9571 99.6 26.7272C97.73 23.1659 94.6 20.6899 90.34 19.3558V29.9607C90.2511 30.8153 90.3507 31.6815 90.63 32.4819V32.3915ZM104.32 40.3056C104.095 38.1575 104.095 35.9867 104.32 33.8386C104.567 31.2651 105.293 28.7799 106.45 26.5463C108.469 22.9505 111.64 20.3777 115.3 19.3671V30.0398C115.384 30.8573 115.299 31.6858 115.05 32.4593C113.596 32.7726 112.189 33.3169 110.87 34.076C108.276 35.5231 106.032 37.6609 104.33 40.3056H104.32ZM115.32 19.3671C111.672 20.3735 108.511 22.9385 106.5 26.5237C105.349 28.7555 104.627 31.2363 104.38 33.8047C104.165 35.9308 104.165 38.0777 104.38 40.2038C106.085 37.5687 108.329 35.4391 110.92 33.9969C112.237 33.243 113.641 32.699 115.09 32.3802C115.338 31.6143 115.424 30.7934 115.34 29.9833V19.4689L115.32 19.3671Z" fill="white"/>
  <path fill-rule="evenodd" clip-rule="evenodd" d="M117.32 39.1863C116.64 39.1863 115.32 39.1863 115.32 40.5657V45.8003H90V40.5657C89.8478 40.0822 89.5469 39.6768 89.1521 39.4235C88.7573 39.1702 88.2951 39.0861 87.85 39.1863C87.5474 39.1517 87.2426 39.1517 86.94 39.1863V49.2034H118.1V39.2316C117.843 39.1781 117.581 39.1629 117.32 39.1863Z" fill="white"/>
  <path d="M14.27 44.4661H0.570007V49.4972H14.27V44.4661Z" fill="white"/>
</svg>
